# AST/ASF file generated using VICON BodyLanguage
# -----------------------------------------------
:version 1.10
:name VICON
:units
  mass 1.0
  length 0.45
  angle deg
:documentation
   .ast/.asf automatically generated from VICON data using
   VICON BodyBuilder and BodyLanguage model FoxedUp or BRILLIANT.MOD
:root
   order TX TY TZ RX RY RZ
   axis XYZ
   position 0 0 0  
   orientation 0 0 0 
:bonedata
  begin
     id 1 
     name lhipjoint
     direction 0.630082 -0.636569 0.44472 
     length 2.82754 
     axis 0 0 0  XYZ
  end
  begin
     id 2 
     name lfemur
     direction 0.34202 -0.939693 0  
     length 7.26371  
     axis 0 0 20  XYZ
    dof rx ry rz
    limits (-160.0 20.0)
           (-70.0 70.0)
           (-60.0 70.0)
  end
  begin
     id 3 
     name ltibia
     direction 0.34202 -0.939693 0   
     length 7.88616   
     axis 0 0 20   XYZ
    dof rx
    limits (-10.0 170.0)
  end
  begin
     id 4 
     name lfoot
     direction 0.0603448 -0.165796 0.984312   
     length 1.77861   
     axis -90 7.62852e-016 20   XYZ
    dof rx rz
    limits (-45.0 90.0)
           (-70.0 20.0)
  end
  begin
     id 5 
     name ltoes
     direction 1.53577e-011 -4.21876e-011 1   
     length 0.902235   
     axis -90 7.62852e-016 20   XYZ
    dof rx
    limits (-90.0 20.0)
  end
  begin
     id 6 
     name rhipjoint
     direction -0.656778 -0.61817 0.431866   
     length 2.9117  
     axis 0 0 0  XYZ 
  end
  begin
     id 7 
     name rfemur
     direction -0.34202 -0.939693 0   
     length 6.81603   
     axis 0 0 -20   XYZ
    dof rx ry rz
    limits (-160.0 20.0)
           (-70.0 70.0)
           (-70.0 60.0)
  end
  begin
     id 8 
     name rtibia
     direction -0.34202 -0.939693 0   
     length 8.05997   
     axis 0 0 -20   XYZ
    dof rx
    limits (-10.0 170.0)
 end
 begin
     id 9 
     name rfoot
     direction -0.0862404 -0.236944 0.967688   
     length 1.84899  
     axis -90 -7.62852e-016 -20   XYZ
    dof rx rz
    limits (-45.0 90.0)
           (-20.0 70.0)
  end
  begin
     id 10 
     name rtoes
     direction -1.53561e-011 -4.21798e-011 1   
     length 0.931579   
     axis -90 -7.62852e-016 -20   XYZ
    dof rx
    limits (-90.0 20.0)
  end
  begin
     id 11 
     name lowerback
     direction -0.0110203 0.991769 -0.127564   
     length 2.05686   
     axis 0 0 0   XYZ
    dof rx ry rz
    limits (-20.0 45.0)
           (-30.0 30.0)
           (-30.0 30.0)
  end
  begin
     id 12 
     name upperback
     direction 0.0109719 0.99993 -0.00432479   
     length 2.06234   
     axis 0 0 0   XYZ
    dof rx ry rz
    limits (-20.0 45.0)
           (-30.0 30.0)
           (-30.0 30.0)
  end
  begin
     id 13 
     name thorax
     direction 0.0173308 0.998351 0.0547306   
     length 2.09856   
     axis 0 0 0   XYZ
    dof rx ry rz
    limits (-20.0 45.0)
           (-30.0 30.0)
           (-30.0 30.0)
  end
  begin
     id 14 
     name lowerneck
     direction -0.0311736 0.989033 0.144366   
     length 1.98151   
     axis 0 0 0   XYZ
    dof rx ry rz
    limits (-20.0 45.0)
           (-30.0 30.0)
           (-30.0 30.0)
  end
  begin
     id 15 
     name upperneck
     direction 0.0421057 0.975772 -0.214698   
     length 2.01457   
     axis 0 0 0   XYZ
    dof rx ry rz
    limits (-20.0 45.0)
           (-30.0 30.0)
           (-30.0 30.0)
  end
  begin
     id 16
     name head
     direction 0.0136911 0.995958 -0.0887718  
     length 2.03562  
     axis 0 0 0   XYZ
    dof rx ry rz
    limits (-20.0 45.0)
           (-30.0 30.0)
           (-30.0 30.0)
  end
  begin
     id 17 
     name lclavicle
     direction 0.915335 0.396201 0.0720134  
     length 4.16217  
     axis 0 0 0   XYZ
    dof ry rz
    limits (-20.0 10.0)
           (0.0 20.0)
  end
  begin
     id 18 
     name lhumerus
     direction 1 -4.48965e-011 6.383e-018   
     length 4.93042   
     axis -180 -30 -90   XYZ
    dof rx ry rz
    limits (-60.0 90.0)
           (-90.0 90.0)
           (-90.0 90.0)
  end
  begin
     id 19
     name lradius
     direction 1 -4.48972e-011 8.8689e-027   
     length 3.68177   
     axis -180 -30 -90   XYZ
    dof rx
    limits (-10.0 170.0)
  end
  begin
     id 20
     name lwrist
     direction 1 -4.48953e-011 1.17971e-026   
     length 1.84089   
     axis -7.69454e-015 90 90   XYZ
    dof ry
    limits (-180.0 0.0)
 end
  begin
     id 21 
     name lhand
     direction 1 -4.49027e-011 2.35802e-026   
     length 0.721479   
     axis -1.50533e-014 90 90   XYZ
    dof rx rz
    limits (-90.0 90.0)
           (-45.0 45.0)
  end
  begin
     id 22 
     name lfingers
     direction 1 -4.48915e-011 4.72027e-026   
     length 0.581675   
     axis -3.01059e-014 90 90   XYZ
    dof rx
    limits (0.0 90.0)
  end
  begin
     id 23
     name lthumb
     direction 0.707107 -6.34948e-011 0.707107   
     length 0.835172   
     axis -90 45 -5.12164e-014   XYZ
    dof rx rz
    limits (-45.0 45.0)
           (-45.0 45.0)
  end
  begin
     id 24 
     name rclavicle
     direction -0.882781 0.469197 0.0234974   
     length 3.95647  
     axis 0 0 0   XYZ 
    dof ry rz
    limits (-10.0 20.0)
           (-20.0 0.0)
  end
  begin
     id 25 
     name rhumerus
     direction -1 -4.48965e-011 -1.54906e-018  
     length 5.07905   
     axis -180 30 90   XYZ
    dof rx ry rz
    limits (-90.0 60.0)
           (-90.0 90.0)
           (-90.0 90.0)
  end
  begin
     id 26 
     name rradius
     direction -1 -4.48972e-011 5.47489e-027   
     length 3.54394   
     axis -180 30 90   XYZ
    dof rx
    limits (-10.0 170.0)
  end
  begin
     id 27 
     name rwrist
     direction -1 -4.48955e-011 1.17969e-026   
     length 1.77197   
     axis -7.69454e-015 -90 -90   XYZ
    dof ry
    limits (-180.0 0.0)
  end
  begin
     id 28
     name rhand
     direction -1 -4.48982e-011 2.35888e-026   
     length 0.681156   
     axis -1.50533e-014 -90 -90   XYZ
    dof rx rz
    limits (-90.0 90.0)
           (-45.0 45.0)
  end
  begin
     id 29
     name rfingers
     direction -1 -4.48955e-011 4.71877e-026   
     length 0.549165   
     axis -3.01059e-014 -90 -90   XYZ
    dof rx
    limits (0.0 90.0)
  end
  begin
     id 30
     name rthumb
     direction -0.707107 -6.3491e-011 0.707107   
     length 0.788495   
     axis -90 -45 5.12164e-014   XYZ
    dof rx rz
    limits (-45.0 45.0)
           (-45.0 45.0)
  end
:hierarchy
  begin
    root lhipjoint rhipjoint lowerback
    lhipjoint lfemur
    lfemur ltibia
    ltibia lfoot
    lfoot ltoes
    rhipjoint rfemur
    rfemur rtibia
    rtibia rfoot
    rfoot rtoes
    lowerback upperback
    upperback thorax
    thorax lowerneck lclavicle rclavicle
    lowerneck upperneck
    upperneck head
    lclavicle lhumerus
    lhumerus lradius
    lradius lwrist
    lwrist lhand lthumb
    lhand lfingers
    rclavicle rhumerus
    rhumerus rradius
    rradius rwrist
    rwrist rhand rthumb
    rhand rfingers
  end

#!OML:ASF H:\Bending\Project 1\Capture day 1\Session 1\Subject.ASF
:FULLY-SPECIFIED
:DEGREES
359
root -9.88934 18.0254 -16.3486 -152.588 83.892 -157.715
lowerback 4.11394 -0.28238 1.63135
upperback -1.28589 -0.194581 2.01469
thorax -3.63209 -0.100761 1.17486
lowerneck -22.2047 -4.11351 -5.52914
upperneck 31.7224 -3.92411 1.76159
head 14.914 -1.8828 0.980882
rclavicle 5.96354e-015 4.37326e-015
rhumerus -36.3073 -7.90751 -77.8989
rradius 35.9197
rwrist -6.29226
rhand -15.2701 -25.7076
rfingers 7.12502
rthumb 10.9042 -55.4045
lclavicle 5.96354e-015 4.37326e-015
lhumerus -37.0972 -5.21587 96.144
lradius 46.1482
lwrist 34.6585
lhand -32.4517 10.3367
lfingers 7.12502
lthumb -5.68483 40.2404
rfemur 5.36581 -5.37527 16.3441
rtibia 2.8625e-014
rfoot -11.3117 -13.479
rtoes 12.0208
lfemur -10.0976 -21.6625 -9.98771
ltibia 22.2069
lfoot -23.7724 15.0863
ltoes -4.86039
360
root -9.89993 18.0229 -16.345 -152.201 83.9383 -157.263
lowerback 4.09697 -0.31369 1.57974
upperback -1.29794 -0.238267 2.0404
thorax -3.63427 -0.120939 1.23345
lowerneck -22.2108 -4.08954 -5.49838
upperneck 31.7898 -3.87143 1.68775
head 14.9411 -1.86671 0.955632
rclavicle 1.0461e-014 0
rhumerus -36.2347 -8.12562 -77.7962
rradius 35.5982
rwrist -6.04033
rhand -15.3606 -25.3601
rfingers 7.12502
rthumb 10.817 -55.0616
lclavicle 1.0461e-014 0
lhumerus -37.1379 -5.33283 96.0593
lradius 45.6923
lwrist 34.8377
lhand -32.6212 10.5207
lfingers 7.12502
lthumb -5.84855 40.4199
rfemur 5.35974 -5.30544 16.3985
rtibia 0
rfoot -11.1256 -13.5794
rtoes 10.9238
lfemur -10.0733 -21.8198 -9.97249
ltibia 22.2774
lfoot -23.9536 15.1902
ltoes -4.57863
361
root -9.91046 18.0191 -16.3418 -151.986 84.0267 -157.011
lowerback 4.06169 -0.320312 1.52416
upperback -1.31111 -0.25118 2.03812
thorax -3.62755 -0.126229 1.26303
lowerneck -22.2232 -4.08984 -5.4782
upperneck 31.8401 -3.85814 1.63324
head 14.9644 -1.86608 0.932231
rclavicle 8.15017e-015 1.98785e-015
rhumerus -36.1606 -8.54002 -77.6195
rradius 35.1584
rwrist -5.78906
rhand -15.6242 -25.0061
rfingers 7.12502
rthumb 10.5627 -54.7207
lclavicle 8.15017e-015 1.98785e-015
lhumerus -37.2141 -5.46809 95.9301
lradius 45.1997
lwrist 35.1029
lhand -32.7352 10.7483
lfingers 7.12502
lthumb -5.95855 40.6446
rfemur 5.30204 -5.20909 16.4299
rtibia 1.59028e-014
rfoot -10.7991 -13.7761
rtoes 8.74183
lfemur -10.0834 -21.9585 -9.99235
ltibia 22.3754
lfoot -24.1564 15.287
ltoes -4.0953
362
root -9.92087 18.0136 -16.3395 -151.846 84.1496 -156.852
lowerback 4.01338 -0.304941 1.48684
upperback -1.32218 -0.235348 2.01086
thorax -3.61176 -0.118053 1.25441
lowerneck -22.2441 -4.10825 -5.48178
upperneck 31.8783 -3.87532 1.614
head 14.9872 -1.87633 0.921344
rclavicle -5.2181e-016 -1.51076e-014
rhumerus -36.1085 -9.07741 -77.3835
rradius 34.6708
rwrist -5.47395
rhand -15.9998 -24.7214
rfingers 7.12502
rthumb 10.2004 -54.4541
lclavicle -5.2181e-016 -1.51076e-014
lhumerus -37.2983 -5.57846 95.7439
lradius 44.6154
lwrist 35.2275
lhand -32.7206 10.9496
lfingers 7.12502
lthumb -5.94448 40.8462
rfemur 5.21315 -5.08749 16.4453
rtibia 1.90833e-014
rfoot -10.3773 -14.0357
rtoes 5.78297
lfemur -10.1227 -22.0571 -10.0387
ltibia 22.5099
lfoot -24.3511 15.3827
ltoes -3.61552
363
root -9.931 18.0069 -16.3387 -151.606 84.2935 -156.598
lowerback 3.96184 -0.280667 1.48237
upperback -1.32925 -0.206365 1.97419
thorax -3.59033 -0.104183 1.21671
lowerneck -22.2733 -4.12844 -5.51195
upperneck 31.911 -3.89533 1.62465
head 15.0109 -1.88681 0.926682
rclavicle -8.17502e-015 -3.97569e-015
rhumerus -36.0817 -9.67113 -77.0906
rradius 34.1728
rwrist -4.98983
rhand -16.3559 -24.5402
rfingers 7.12502
rthumb 9.85683 -54.2895
lclavicle -8.17502e-015 -3.97569e-015
lhumerus -37.3687 -5.60758 95.4982
lradius 43.887
lwrist 34.9189
lhand -32.5451 11.0334
lfingers 7.12502
lthumb -5.77504 40.9347
rfemur 5.11978 -4.94381 16.4568
rtibia 2.38542e-014
rfoot -9.94451 -14.2982
rtoes 2.69823
lfemur -10.1745 -22.1131 -10.0933
ltibia 22.6721
lfoot -24.5182 15.4969
ltoes -3.37041
364
root -9.94065 18.0005 -16.3394 -151.097 84.4451 -156.072
lowerback 3.91601 -0.26344 1.51303
upperback -1.33309 -0.184214 1.94682
thorax -3.56882 -0.0942672 1.16943
lowerneck -22.3075 -4.13236 -5.55929
upperneck 31.9433 -3.88657 1.64217
head 15.0352 -1.88633 0.943368
rclavicle 6.41081e-015 -1.70955e-014
rhumerus -36.0656 -10.2939 -76.73
rradius 33.6562
rwrist -4.23774
rhand -16.5499 -24.4494
rfingers 7.12502
rthumb 9.66958 -54.2075
lclavicle 6.41081e-015 -1.70955e-014
lhumerus -37.4147 -5.50947 95.1994
lradius 42.9884
lwrist 33.9227
lhand -32.2316 10.9181
lfingers 7.12502
lthumb -5.47234 40.8274
rfemur 5.04234 -4.78181 16.4741
rtibia 1.59028e-014
rfoot -9.60139 -14.4997
rtoes 0.274448
lfemur -10.2165 -22.1421 -10.1372
ltibia 22.8335
lfoot -24.6561 15.6486
ltoes -3.47252
